<?xml version="1.0" encoding="UTF-8"?>
<svg width="21px" height="22px" viewBox="0 0 21 22" version="1.1" xmlns="http://www.w3.org/2000/svg" xmlns:xlink="http://www.w3.org/1999/xlink">
    <!-- Generator: Sketch 48.2 (47327) - http://www.bohemiancoding.com/sketch -->
    <title>Oval 7</title>
    <desc>Created with Sketch.</desc>
    <defs></defs>
    <g id="footer" stroke="none" stroke-width="1" fill="none" fill-rule="evenodd" transform="translate(-235.000000, -257.000000)">
        <path d="M251,261 C250,260 247.991555,258.5 245.5,258.5 C240.253295,258.5 236,262.477153 236,268 C236,273.522847 240.253295,278 245.5,278 C250.746705,278 255,273.522847 255,268 C255,267.458912 255,267 255,266.410074 L245.990537,266.410074 L245.990537,270.000012 L251,270.000012 C250.296417,272.703604 248.787188,274.212833 246.472313,274.5277 C243,275 238.912782,272.023555 239.456391,267.511778 C240,263 243.527687,262 245,262 C245.981542,262 247.314875,262.5 249,263.5 L251,261 Z" id="Oval-7" stroke="#1F2667" stroke-width="2"></path>
    </g>
</svg>